<svg id="illustration" xmlns="http://www.w3.org/2000/svg" viewBox="0 0 400 400"><defs><style>.cls-1{fill:#35785d;}.cls-2{fill:#54b08b;}.cls-3{fill:#a77e62;}.cls-4,.cls-8{fill:#2b2b2b;}.cls-4{opacity:0.1;}.cls-5{fill:#835940;}.cls-6{fill:#5a753d;}.cls-7{fill:#72c9a6;}.cls-9{fill:#99c26d;}.cls-10{fill:#d9e354;}.cls-11{fill:#738d57;}.cls-12{fill:#c09c84;}.cls-13{fill:#b8c745;}.cls-14{fill:#fff;}.cls-15{fill:#e8f078;}.cls-16{fill:#858686;}.cls-17{fill:#c9ad9b;}.cls-18{fill:#474747;}.cls-19{fill:#4f5253;}.cls-20{fill:#6f7173;}</style></defs><title>Mediator (INFP) personality</title><polygon class="cls-1" points="146.65 333.27 251.11 333.41 314.97 306.05 247.15 186.76 147.51 199.57 131.38 233.55 129.51 328.51 146.65 333.27"/><polygon class="cls-2" points="125.7 238.74 120.8 363.79 152.05 391.15 138.66 226.86 124.26 211.74 125.7 238.74"/><polygon class="cls-3" points="113.96 270.16 116.34 288.88 111.95 294.79 103.67 285.43 113.96 270.16"/><polygon class="cls-3" points="105.68 283.34 108.85 294.43 108.78 311.2 100.43 307.53 88.26 287.15 105.68 283.34"/><polygon class="cls-4" points="106.83 386.72 200.5 400 291.07 387.55 203.31 376.68 106.83 386.72"/><path class="cls-5" d="M284.05,52.06l8.71,7-2.38,9.79s-5.83.07-6.4-.5-7.06-9.22-6.84-9.51S280.59,51,280.59,51Z"/><polygon class="cls-3" points="272.38 75.6 274.26 56.02 283.47 45.72 293.69 45.29 289.23 52.06 288.3 52.2 284.34 57.53 286.57 66.53 272.38 75.6"/><polygon class="cls-6" points="210.72 167.18 246.5 187.04 229.66 246.44 178.97 258.61 155.29 232.26 148.59 217.79 127.93 192.8 210.72 167.18"/><polygon class="cls-7" points="184.37 176.46 188.76 185.25 180.34 192.95 138.15 192.8 128.15 188.49 125.98 172.21 146.07 159.9 166.66 158.61 184.37 176.46"/><polygon class="cls-8" points="120.8 158.18 96.83 146.59 98.48 123.33 114.83 126.07 120.8 158.18"/><polygon class="cls-7" points="184.37 176.46 200.72 181.07 222.6 166.02 224.62 130.6 194.24 141.69 164.57 162.57 184.37 176.46"/><polygon class="cls-9" points="204.53 210.44 188.84 199.21 180.34 192.95 200.93 180.49 217.56 182.29 204.53 210.44"/><polygon class="cls-10" points="200.93 180.49 196.83 197.05 180.34 192.95 184.37 176.46 200.93 180.49"/><polygon class="cls-11" points="204.53 210.44 246.5 187.04 229.66 246.44 208.27 263.86 176.67 281.43 162.34 262.93 155.29 232.26 204.53 210.44"/><polygon class="cls-6" points="211.08 242.05 220.66 256.16 250.61 251.7 246.5 187.04 204.53 210.44 211.08 242.05"/><polygon class="cls-11" points="200.93 180.49 204.53 210.44 249.74 185.17 242.62 176.97 242.9 155.8 224.62 130.6 200.93 180.49"/><polygon class="cls-2" points="138.15 192.8 125.98 172.21 113.17 192.73 125.48 204.18 138.15 192.8"/><polygon class="cls-9" points="125.98 235.2 113.96 270.16 103.52 277.07 97.76 267.07 97.55 230.28 114.97 212.64 125.98 235.2"/><polygon class="cls-11" points="148.59 217.79 125.98 235.2 97.55 230.28 113.17 192.73 138.15 192.8 148.59 217.79"/><polygon class="cls-3" points="189.7 345.36 175.66 377.69 170.19 383.23 156.44 375.67 158.6 333.27 187.11 339.31 189.7 345.36"/><polygon class="cls-3" points="217.85 345.5 215.11 373.44 222.89 384.31 232.46 374.95 251.11 333.41 223.82 335.86 217.85 345.5"/><polygon class="cls-12" points="215.11 373.44 232.9 373.73 250.89 388.05 239.38 389.2 212.88 388.99 215.11 373.44"/><polygon class="cls-3" points="239.38 389.2 254.21 380.49 252.55 389.42 239.38 389.2"/><polygon class="cls-12" points="175.66 377.69 175.73 392.52 143.34 391.44 156.44 375.67 175.66 377.69"/><polygon class="cls-3" points="143.34 391.44 159.61 382.15 175.73 392.52 143.34 391.44"/><polygon class="cls-5" points="158.6 333.27 189.7 345.36 194.96 333.27 158.6 333.27"/><polygon class="cls-5" points="217.85 345.5 251.11 333.41 219.15 333.41 217.85 345.5"/><polygon class="cls-12" points="287.79 84.53 294.27 75.74 300.82 61.85 297.58 59.4 272.38 75.6 275.26 88.99 287.79 84.53"/><polygon class="cls-6" points="224.62 130.6 242.62 176.97 276.7 130.31 275.08 104.68 250.14 116.56 224.62 130.6"/><polygon class="cls-9" points="272.38 75.6 250.14 116.56 276.7 130.31 287.79 84.53 272.38 75.6"/><polygon class="cls-12" points="97.76 267.07 88.26 287.15 108.85 294.43 113.96 270.16 97.76 267.07"/><polygon class="cls-13" points="304.78 50.11 297.58 59.4 288.3 52.2 295.49 42.91 304.78 50.11"/><polygon class="cls-14" points="299.42 51.44 296.83 54.68 293.66 52.09 296.18 48.85 299.42 51.44"/><polygon class="cls-7" points="242.62 176.97 246.36 171.21 319.43 306.77 301.94 352.63 242.62 176.97"/><polygon class="cls-15" points="174 262.93 162.34 262.93 158.6 333.27 194.96 333.27 205.54 310.23 217.27 300.8 220.66 256.16 174 262.93"/><polygon class="cls-10" points="250.61 251.7 220.66 256.16 205.47 310.01 205.54 310.23 219.15 333.41 251.11 333.41 250.61 251.7"/><polygon class="cls-9" points="220.66 256.16 211.08 242.05 206.19 258.25 220.66 256.16"/><polygon class="cls-12" points="196.54 133.55 178.61 155.73 184.37 176.46 146.07 159.9 139.59 114.47 126.42 88.41 124.76 54.65 161.26 33.41 194.81 37.23 202.3 44.57 227.93 121.24 196.54 133.55"/><polygon class="cls-3" points="118.86 105.55 146.07 159.9 184.37 176.46 188.76 161.13 168.53 143.56 141.03 71.64 134.98 65.02 125.98 87.62 118.86 105.55"/><polygon class="cls-16" points="151.9 31.83 192.44 3.46 176.09 0 95.53 36.79 117.63 52.63 151.9 31.83"/><polygon class="cls-8" points="205.83 32.47 206.19 41.4 227.93 58.39 215.11 82.87 202.3 44.57 195.24 37.3 198.27 31.11 205.83 32.47"/><polygon class="cls-17" points="197.98 92.73 187.97 96.48 175.73 64.73 185.74 60.98 197.98 92.73"/><polygon class="cls-5" points="197.98 92.73 195.24 98.2 187.97 96.48 197.98 92.73"/><polygon class="cls-5" points="127.78 123.26 139.59 114.47 134.84 137.44 127.78 123.26"/><polygon class="cls-18" points="151.33 69.55 156.01 71.64 163.28 62.49 170.55 62.49 170.55 60.98 162.56 58.97 151.33 69.55"/><polygon class="cls-18" points="183.79 55.73 185.74 60.98 193.01 51.77 198.56 52.42 198.56 51.26 191.21 48.67 183.79 55.73"/><polygon class="cls-3" points="156.01 71.64 184.3 86.9 175.73 64.73 170.55 62.49 163.28 62.49 156.01 71.64"/><polygon class="cls-3" points="191.64 76.17 198.56 52.42 193.01 51.77 185.74 60.98 191.64 76.17"/><polygon class="cls-5" points="179.55 112.17 207.84 101.66 206.19 106.7 183.79 114.47 179.55 112.17"/><polygon class="cls-5" points="188.76 161.13 196.54 133.55 160.97 146.3 188.76 161.13"/><polygon class="cls-16" points="202.3 44.57 205.83 32.47 227.93 58.39 202.3 44.57"/><polygon class="cls-19" points="215.62 51.77 215.11 82.87 218.86 94.17 227.93 58.39 215.62 51.77"/><polygon class="cls-12" points="127.78 123.26 139.59 114.47 126.13 87.41 116.48 100.58 127.78 123.26"/><polygon class="cls-5" points="121.74 102.16 126.06 96.62 131.74 109 121.74 102.16"/><polygon class="cls-3" points="154.93 55.8 198.56 40.68 195.24 37.3 154.93 55.8"/><polygon class="cls-8" points="85.88 103.6 117.27 134.78 120.8 158.18 146.07 159.9 116.48 100.58 107.7 88.92 85.88 103.6"/><polygon class="cls-18" points="85.88 103.6 127.78 123.26 120.8 158.18 85.88 103.6"/><polygon class="cls-18" points="151.97 116.92 131.24 74.52 134.98 65.02 130.3 44.86 95.53 36.79 85.88 103.6 116.48 100.58 125.98 87.62 143.19 121.75 151.97 116.92"/><polygon class="cls-16" points="223.9 74.52 229.15 88.05 223.03 106.7 218.86 94.17 223.9 74.52"/><polygon class="cls-20" points="192.44 3.46 173.93 36.51 134.98 65.02 95.53 36.79 192.44 3.46"/><polygon class="cls-16" points="192.44 3.46 134.98 65.02 213.1 29.09 192.44 3.46"/><polygon class="cls-13" points="222.6 219.15 219 226.07 212.02 222.54 215.62 215.48 222.6 219.15"/><polygon class="cls-13" points="227.93 241.98 224.33 249.03 217.35 245.36 220.87 238.38 227.93 241.98"/><path class="cls-8" d="M197,62.21a4.3,4.3,0,0,0-4.25,4.24A4.26,4.26,0,0,0,197,70.7a4.25,4.25,0,1,0,0-8.49Z"/><path class="cls-8" d="M169.33,72.21a4.26,4.26,0,0,0-4.25,4.25,4.25,4.25,0,1,0,8.49,0A4.26,4.26,0,0,0,169.33,72.21Z"/><polygon class="cls-13" points="162.34 262.93 210.72 291.44 250.61 262.06 250.61 251.7 162.34 262.93"/></svg>



